<svg width="64" height="64" viewBox="0 0 64 64" fill="none" xmlns="http://www.w3.org/2000/svg">
<rect width="64" height="64" rx="12" fill="#F2F5F9"/>
<path d="M32 37V38C32 39.6569 33.3431 41 35 41L38 41" stroke="#242E49" stroke-width="2"/>
<path d="M32 37V38C32 39.6569 30.6569 41 29 41L26 41" stroke="#242E49" stroke-width="2"/>
<path d="M41 34V26C41 24.3431 39.6569 23 38 23H26C24.3431 23 23 24.3431 23 26V34C23 35.6569 24.3431 37 26 37H38C39.6569 37 41 35.6569 41 34Z" stroke="#242E49" stroke-width="2"/>
<path d="M28 30H36" stroke="#25AFFA" stroke-width="2"/>
<path d="M32 26L32 34" stroke="#25AFFA" stroke-width="2"/>
</svg>
