<svg width="68" height="248" viewBox="0 0 68 248" fill="none" xmlns="http://www.w3.org/2000/svg">
<path d="M22.627 224.666L29.698 217.595C32.0412 215.252 35.8402 215.252 38.1833 217.595L45.2544 224.666" stroke="white" stroke-width="4"/>
<g opacity="0.8">
<path opacity="0.8" d="M22.627 188.784L29.698 181.713C32.0412 179.37 35.8402 179.37 38.1833 181.713L45.2544 188.784" stroke="white" stroke-width="4"/>
</g>
<path opacity="0.1" d="M22.627 45.2546L29.698 38.1836C32.0412 35.8404 35.8402 35.8404 38.1833 38.1836L45.2544 45.2546" stroke="white" stroke-width="4"/>
<g opacity="0.4">
<path d="M22.627 117.019L29.698 109.948C32.0412 107.605 35.8402 107.605 38.1833 109.948L45.2544 117.019" stroke="white" stroke-width="4"/>
</g>
<g opacity="0.6">
<path d="M22.627 152.902L29.698 145.831C32.0412 143.487 35.8402 143.487 38.1833 145.831L45.2544 152.902" stroke="white" stroke-width="4"/>
</g>
<g opacity="0.2">
<path d="M22.627 81.137L29.698 74.0659C32.0412 71.7227 35.8402 71.7227 38.1833 74.0659L45.2544 81.137" stroke="white" stroke-width="4"/>
</g>
</svg>
