<svg width="24" height="24" viewBox="0 0 24 24" fill="none" xmlns="http://www.w3.org/2000/svg">
<path d="M18.5 10H17.5C16.6716 10 16 10.6716 16 11.5V19.5C16 20.3284 16.6716 21 17.5 21H18.5C19.3284 21 20 20.3284 20 19.5V11.5C20 10.6716 19.3284 10 18.5 10Z" fill="#5D6A85"/>
<path d="M6.5 14H5.5C4.67157 14 4 14.6716 4 15.5V19.5C4 20.3284 4.67157 21 5.5 21H6.5C7.32843 21 8 20.3284 8 19.5V15.5C8 14.6716 7.32843 14 6.5 14Z" fill="#5D6A85"/>
<path d="M12.5 5H11.5C10.6716 5 10 5.67157 10 6.5V19.5C10 20.3284 10.6716 21 11.5 21H12.5C13.3284 21 14 20.3284 14 19.5V6.5C14 5.67157 13.3284 5 12.5 5Z" fill="#5D6A85"/>
</svg>
