<svg width="64" height="64" viewBox="0 0 64 64" fill="none" xmlns="http://www.w3.org/2000/svg">
<g filter="url(#filter0_d_2168_559)">
<rect x="0.5" y="0.5" width="63" height="63" rx="11.5" stroke="#25AFFA" stroke-width="2" shape-rendering="crispEdges"/>
<path d="M34 30L41 37" stroke="#25AFFA" stroke-width="2" stroke-linejoin="round"/>
<path d="M30 26L31 27" stroke="#25AFFA" stroke-width="2" stroke-linejoin="round"/>
<path d="M45 41L46 42" stroke="#25AFFA" stroke-width="2" stroke-linejoin="round"/>
<path d="M29.0606 32.0606L29.9393 32.9393C30.5251 33.5251 31.4749 33.5251 32.0607 32.9393L34.5 30.5L36.9393 28.0607C37.5251 27.4749 37.5251 26.5251 36.9393 25.9393L36.0606 25.0606C35.4749 24.4749 34.5251 24.4749 33.9393 25.0606L29.0606 29.9392C28.4748 30.525 28.4748 31.4748 29.0606 32.0606Z" stroke="#25AFFA" stroke-width="2"/>
<path d="M42.0607 42.9393L46.9393 38.0607C47.5251 37.4749 47.5251 36.5251 46.9393 35.9393L46.0606 35.0606C45.4749 34.4749 44.5251 34.4749 43.9393 35.0606L39.0606 39.9392C38.4748 40.525 38.4748 41.4748 39.0606 42.0606L39.9393 42.9393C40.5251 43.5251 41.4749 43.5251 42.0607 42.9393Z" stroke="#25AFFA" stroke-width="2"/>
</g>
<defs>
<filter id="filter0_d_2168_559" x="0" y="0" width="76" height="76" filterUnits="userSpaceOnUse" color-interpolation-filters="sRGB">
<feFlood flood-opacity="0" result="BackgroundImageFix"/>
<feColorMatrix in="SourceAlpha" type="matrix" values="0 0 0 0 0 0 0 0 0 0 0 0 0 0 0 0 0 0 127 0" result="hardAlpha"/>
<feOffset dy="4"/>
<feGaussianBlur stdDeviation="2"/>
<feComposite in2="hardAlpha" operator="out"/>
<feColorMatrix type="matrix" values="0 0 0 0 0 0 0 0 0 0 0 0 0 0 0 0 0 0 0.25 0"/>
<feBlend mode="normal" in2="BackgroundImageFix" result="effect1_dropShadow_2168_559"/>
<feBlend mode="normal" in="SourceGraphic" in2="effect1_dropShadow_2168_559" result="shape"/>
</filter>
</defs>
</svg>
