<svg width="65" height="64" viewBox="0 0 65 64" fill="none" xmlns="http://www.w3.org/2000/svg">
<rect x="0.333496" width="64" height="64" rx="12" fill="#242E49"/>
<path d="M37.3335 24H25.3335V33C25.3335 34.6569 26.6766 36 28.3335 36H34.3335C35.9904 36 37.3335 34.6569 37.3335 33V24Z" stroke="white" stroke-width="2"/>
<path d="M37.3335 24H39.8335C40.6619 24 41.3335 24.6716 41.3335 25.5V27.5C41.3335 28.3284 40.6619 29 39.8335 29H38.8335C38.0051 29 37.3335 28.3284 37.3335 27.5V24Z" stroke="white" stroke-width="2"/>
<path d="M23.3335 37V37C23.3335 38.6569 24.6766 40 26.3335 40H36.3335C37.9904 40 39.3335 38.6569 39.3335 37V37" stroke="white" stroke-width="2"/>
</svg>
