<svg width="48" height="48" viewBox="0 0 68 69" fill="#090E1D" xmlns="http://www.w3.org/2000/svg">
    <path fillRule="evenodd" clipRule="evenodd" d="M10.4657 6.38398H12.5561C13.5269 6.38398 14.317 7.17862 14.317 8.14484V10.2353C14.317 11.206 13.5269 11.9961 12.5561 11.9961H10.4657C9.49496 11.9961 8.70483 11.206 8.70483 10.2353V8.14484C8.70483 7.17411 9.49947 6.38398 10.4657 6.38398Z" fill="#090E1D"/>
    <path fillRule="evenodd" clipRule="evenodd" d="M20.5339 5.66157H23.1616C24.3807 5.66157 25.3785 6.65938 25.3785 7.87392V10.5062C25.3785 11.7252 24.3807 12.7185 23.1616 12.7185H20.5339C19.3148 12.7185 18.3215 11.7207 18.3215 10.5062V7.87392C18.3215 6.65487 19.3148 5.66157 20.5339 5.66157Z" fill="#090E1D"/>
    <path fillRule="evenodd" clipRule="evenodd" d="M20.5797 17.7798H23.2074C24.4265 17.7798 25.4198 18.7777 25.4198 19.9967V22.6244C25.4198 23.8435 24.4219 24.8368 23.2074 24.8368H20.5797C19.3606 24.8368 18.3628 23.839 18.3628 22.6244V19.9967C18.3673 18.7731 19.3651 17.7798 20.5797 17.7798Z" fill="#090E1D"/>
    <path fillRule="evenodd" clipRule="evenodd" d="M20.6745 43.0866H23.3068C24.5258 43.0866 25.5191 44.0844 25.5191 45.2989V47.9312C25.5191 49.1502 24.5213 50.1435 23.3068 50.1435H20.6745C19.4555 50.1435 18.4622 49.1457 18.4622 47.9312V45.2989C18.4622 44.0844 19.4555 43.0866 20.6745 43.0866Z" fill="#090E1D"/>
    <path fillRule="evenodd" clipRule="evenodd" d="M20.7192 55.4215H23.3514C24.5705 55.4215 25.5638 56.4193 25.5638 57.6383V60.2661C25.5638 61.4851 24.566 62.4784 23.3514 62.4784H20.7192C19.5001 62.4784 18.5068 61.4806 18.5068 60.2661V57.6383C18.5068 56.4148 19.5046 55.4215 20.7192 55.4215Z" fill="#090E1D"/>
    <path fillRule="evenodd" clipRule="evenodd" d="M32.6819 0H35.8695C37.3459 0 38.5514 1.20551 38.5514 2.68192V5.86952C38.5514 7.34593 37.3459 8.55144 35.8695 8.55144H32.6819C31.2055 8.55144 30 7.34593 30 5.86952V2.68192C30 1.20551 31.21 0 32.6819 0Z" fill="#090E1D"/>
    <path fillRule="evenodd" clipRule="evenodd" d="M32.589 16.8046H36.2642C37.9664 16.8046 39.3615 18.0101 39.3615 19.4865V28.801H48.676C50.1524 28.801 51.3579 30.1961 51.3579 31.8983V35.5735C51.3579 37.2756 50.1524 38.6708 48.676 38.6708H39.3615V47.9853C39.3615 49.4617 37.9664 50.6672 36.2642 50.6672H32.589C30.8869 50.6672 29.4917 49.4617 29.4917 47.9853V38.6708H20.1773C18.7009 38.6708 17.4954 37.2802 17.4954 35.5735V31.8983C17.4954 30.1961 18.7009 28.801 20.1773 28.801H29.4917V19.4865C29.4917 18.0101 30.8824 16.8046 32.589 16.8046Z" fill="#090E1D"/>
    <path fillRule="evenodd" clipRule="evenodd" d="M33.1311 59.6765H36.3187C37.7951 59.6765 39.0006 60.882 39.0006 62.3584V65.5415C39.0006 67.0179 37.7951 68.2234 36.3187 68.2234H33.1311C31.6547 68.2234 30.4492 67.0179 30.4492 65.5415V62.3584C30.4492 60.882 31.6547 59.6765 33.1311 59.6765Z" fill="#090E1D"/>
    <path fillRule="evenodd" clipRule="evenodd" d="M46.165 4H49.926C51.6688 4 53.0956 5.42675 53.0956 7.16954V10.9305C53.0956 12.6733 51.6688 14.0956 49.926 14.0956H46.165C44.4222 14.0956 43 12.6688 43 10.9305V7.16954C43 5.42675 44.4267 4 46.165 4Z" fill="#090E1D"/>
    <path fillRule="evenodd" clipRule="evenodd" d="M45.8634 16.2583H49.6244C51.3672 16.2583 52.7894 17.685 52.7894 19.4278V23.1888C52.7894 24.9316 51.3627 26.3539 49.6244 26.3539H45.8634C44.1206 26.3539 42.6938 24.9271 42.6938 23.1888V19.4278C42.6938 17.685 44.1206 16.2583 45.8634 16.2583Z" fill="#090E1D"/>
    <path fillRule="evenodd" clipRule="evenodd" d="M60.1177 15.8292H64.1993C66.091 15.8292 67.6352 17.3779 67.6352 19.2697V23.3513C67.6352 25.2431 66.0865 26.7917 64.1993 26.7917H60.1177C58.2259 26.7917 56.6772 25.2431 56.6772 23.3513V19.2697C56.6818 17.3734 58.2259 15.8292 60.1177 15.8292Z" fill="#090E1D"/>
    <path fillRule="evenodd" clipRule="evenodd" d="M60.0863 28.2908H64.2311C66.1499 28.2908 67.7212 29.862 67.7212 31.7809V35.9257C67.7212 37.8446 66.1499 39.4158 64.2311 39.4158H60.0863C58.1674 39.4158 56.5962 37.8446 56.5962 35.9257V31.7809C56.5962 29.862 58.1674 28.2908 60.0863 28.2908Z" fill="#090E1D"/>
    <path fillRule="evenodd" clipRule="evenodd" d="M60.1035 41.1044H64.2122C66.113 41.1044 67.6707 42.6621 67.6707 44.5629V48.6715C67.6707 50.5724 66.113 52.13 64.2122 52.13H60.1035C58.2027 52.13 56.645 50.5724 56.645 48.6715V44.5629C56.6495 42.6621 58.2027 41.1044 60.1035 41.1044Z" fill="#090E1D"/>
    <path fillRule="evenodd" clipRule="evenodd" d="M45.9537 41.5694H49.7147C51.4575 41.5694 52.8797 42.9962 52.8797 44.7389V48.5C52.8797 50.2428 51.453 51.6695 49.7147 51.6695H45.9537C44.2109 51.6695 42.7842 50.2428 42.7842 48.5V44.7389C42.7887 42.9962 44.2109 41.5694 45.9537 41.5694Z" fill="#090E1D"/>
    <path fillRule="evenodd" clipRule="evenodd" d="M46.0034 53.8999H49.7644C51.5072 53.8999 52.9339 55.3267 52.9339 57.0695V60.8305C52.9339 62.5733 51.5072 64 49.7644 64H46.0034C44.2606 64 42.8384 62.5733 42.8384 60.8305V57.0695C42.8339 55.3267 44.2606 53.8999 46.0034 53.8999Z" fill="#090E1D"/>
    <path fillRule="evenodd" clipRule="evenodd" d="M10.4657 18.5023H12.5561C13.5269 18.5023 14.317 19.2924 14.317 20.2632V22.3536C14.317 23.3243 13.5269 24.1145 12.5561 24.1145H10.4657C9.49496 24.1145 8.70483 23.3243 8.70483 22.3536V20.2632C8.70483 19.2924 9.49947 18.5023 10.4657 18.5023Z" fill="#090E1D"/>
    <path fillRule="evenodd" clipRule="evenodd" d="M1.4764 31.501H3.22823C4.04093 31.501 4.70463 32.1647 4.70463 32.9774V34.7292C4.70463 35.5419 4.04093 36.2056 3.22823 36.2056H1.4764C0.663701 36.2056 0 35.5419 0 34.7292V32.9774C0 32.1647 0.663701 31.501 1.4764 31.501Z" fill="#090E1D"/>
    <path fillRule="evenodd" clipRule="evenodd" d="M1.4764 18.9538H3.22823C4.04093 18.9538 4.70463 19.6175 4.70463 20.4302V22.182C4.70463 22.9947 4.04093 23.6584 3.22823 23.6584H1.4764C0.663701 23.6584 0 22.9947 0 22.182V20.4302C0 19.6175 0.663701 18.9538 1.4764 18.9538Z" ffill="#090E1D"/>
    <path fillRule="evenodd" clipRule="evenodd" d="M1.4764 44.265H3.22823C4.04093 44.265 4.70463 44.9287 4.70463 45.7414V47.4932C4.70463 48.3059 4.04093 48.9696 3.22823 48.9696H1.4764C0.663701 48.9696 0 48.3059 0 47.4932V45.7414C0 44.9287 0.663701 44.265 1.4764 44.265Z" fill="#090E1D"/>
    <path fillRule="evenodd" clipRule="evenodd" d="M10.4657 31.0495H12.5561C13.5269 31.0495 14.317 31.8441 14.317 32.8103V34.9008C14.317 35.8715 13.5269 36.6617 12.5561 36.6617H10.4657C9.49496 36.6617 8.70483 35.8715 8.70483 34.9008V32.8103C8.70483 31.8396 9.49947 31.0495 10.4657 31.0495Z" fill="#090E1D"/>
    <path fillRule="evenodd" clipRule="evenodd" d="M10.4657 43.8089H12.5561C13.5269 43.8089 14.317 44.6035 14.317 45.5697V47.6602C14.317 48.6309 13.5269 49.421 12.5561 49.421H10.4657C9.49496 49.421 8.70483 48.6309 8.70483 47.6602V45.5697C8.70483 44.6035 9.49947 43.8089 10.4657 43.8089Z" fill="#090E1D"/>
    <path fillRule="evenodd" clipRule="evenodd" d="M10.4657 56.1439H12.5561C13.5269 56.1439 14.317 56.934 14.317 57.9047V59.9952C14.317 60.9614 13.5269 61.756 12.5561 61.756H10.4657C9.49496 61.756 8.70483 60.9614 8.70483 59.9952V57.9047C8.70483 56.934 9.49947 56.1439 10.4657 56.1439Z" fill="#090E1D"/>
</svg>