<svg width="20" height="19" viewBox="0 0 20 19" fill="none" xmlns="http://www.w3.org/2000/svg">
<path fill-rule="evenodd" clip-rule="evenodd" d="M5 2.5C5 1.11929 6.11929 0 7.5 0H12.5C13.8807 0 15 1.11929 15 2.5V4.5C15 4.77614 15.2239 5 15.5 5H17.5C18.8807 5 20 6.11929 20 7.5V12.5C20 13.8807 18.8807 15 17.5 15H15V16.5C15 16.7761 15.2239 17 15.5 17H18V19H15.5C14.1193 19 13 17.8807 13 16.5V15H11V19H9V15H7V16.5C7 17.8807 5.88071 19 4.5 19H2V17H4.5C4.77614 17 5 16.7761 5 16.5V15H2.5C1.11929 15 0 13.8807 0 12.5V7.5C0 6.11929 1.11929 5 2.5 5H4.5C4.77614 5 5 4.77614 5 4.5V2.5ZM9 10H7V8H9V6H11V8H13V10H11V12H9V10Z" fill="#242E49"/>
</svg>
