<svg width="121" height="150" viewBox="0 0 121 150" fill="none" xmlns="http://www.w3.org/2000/svg">
<path d="M60.0247 0C27.0659 0 0.0996094 26.9663 0.0996094 59.9251C0.0996094 92.8839 47.2906 143.82 47.2906 143.82C54.7813 152.06 66.0172 152.06 73.5078 143.82C73.5078 143.82 120.699 93.633 120.699 59.9251C120.699 44.1948 114.706 28.4644 103.47 17.2285C90.7363 5.99251 75.755 0 60.0247 0ZM60.0247 85.3933C48.7887 85.3933 39.0509 78.6517 34.5565 68.1648C30.0622 57.6779 32.3093 45.6929 40.549 38.2022C48.7887 29.9625 60.7738 27.7154 70.5116 32.2097C80.9985 36.7041 87.7401 46.4419 87.7401 57.6779C87.7401 73.4082 75.006 85.3933 60.0247 85.3933Z" fill="#E3EAF4"/>
</svg>
