<svg width="34" height="34" viewBox="0 0 34 34" fill="none" xmlns="http://www.w3.org/2000/svg">
<path fill-rule="evenodd" clip-rule="evenodd" d="M15.0937 0H18.7689C20.471 0 21.8662 1.20551 21.8662 2.68192V11.9964H31.1806C32.6571 11.9964 33.8626 13.3915 33.8626 15.0937V18.7689C33.8626 20.4711 32.6571 21.8662 31.1806 21.8662H21.8662V31.1807C21.8662 32.6571 20.471 33.8626 18.7689 33.8626H15.0937C13.3915 33.8626 11.9964 32.6571 11.9964 31.1807V21.8662H2.68192C1.20551 21.8662 0 20.4756 0 18.7689V15.0937C0 13.3915 1.20551 11.9964 2.68192 11.9964H11.9964V2.68192C11.9964 1.20551 13.387 0 15.0937 0Z" fill="white"/>
</svg>
