<svg width="43" height="32" viewBox="0 0 43 32" fill="none" xmlns="http://www.w3.org/2000/svg">
<path d="M0 14.6667V4C0 1.79086 1.79086 0 4 0H14.6667C16.8758 0 18.6667 1.79086 18.6667 4V30.6667C18.6667 31.403 18.0697 32 17.3333 32H10.6667C9.93029 32 9.33333 31.403 9.33333 30.6667V20C9.33333 19.2636 8.73638 18.6667 8 18.6667H4C1.79086 18.6667 0 16.8758 0 14.6667Z" fill="white"/>
<path d="M24 14.6667V4C24 1.79086 25.7909 0 28 0H38.6667C40.8758 0 42.6667 1.79086 42.6667 4V30.6667C42.6667 31.403 42.0697 32 41.3333 32H34.6667C33.9303 32 33.3333 31.403 33.3333 30.6667V20C33.3333 19.2636 32.7364 18.6667 32 18.6667H28C25.7909 18.6667 24 16.8758 24 14.6667Z" fill="white"/>
</svg>
