<svg width="48" height="44" viewBox="0 0 48 44" fill="none" xmlns="http://www.w3.org/2000/svg">
<path fill-rule="evenodd" clip-rule="evenodd" d="M6.08008 0H13.305C16.653 0 19.3938 2.74081 19.3938 6.08875V13.3137C19.3938 16.6617 16.653 19.3938 13.305 19.3938H6.08008C2.73214 19.3938 0 16.653 0 13.3137V6.08875C0 2.74081 2.74081 0 6.08008 0Z" fill="#25AFFA"/>
<path fill-rule="evenodd" clip-rule="evenodd" d="M6.17589 23.5485H13.4009C16.7488 23.5485 19.4809 26.2893 19.4809 29.6372V36.8622C19.4809 40.2101 16.7401 42.9423 13.4009 42.9423H6.17589C2.82795 42.9423 0.0871582 40.2015 0.0871582 36.8622V29.6372C0.0871582 26.2893 2.82795 23.5485 6.17589 23.5485Z" fill="#AFE3FF"/>
<path fill-rule="evenodd" clip-rule="evenodd" d="M33.5588 22.7239H41.3996C45.0338 22.7239 48.0001 25.6989 48.0001 29.333V37.1738C48.0001 40.808 45.0251 43.783 41.3996 43.783H33.5588C29.9247 43.783 26.9497 40.808 26.9497 37.1738V29.333C26.9584 25.6902 29.9247 22.7239 33.5588 22.7239Z" fill="#006FFF"/>
</svg>
