<svg width="1440" height="947" viewBox="0 0 1440 947" fill="none" xmlns="http://www.w3.org/2000/svg">
<mask id="mask0_2050_1651" style="mask-type:alpha" maskUnits="userSpaceOnUse" x="-269" y="0" width="1969" height="1217">
<path fill-rule="evenodd" clip-rule="evenodd" d="M57.8192 534H89.6951C104.459 534 116.514 546.055 116.514 560.819V592.695C116.514 607.459 104.459 619.514 89.6951 619.514H57.8192C43.0551 619.514 31 607.459 31 592.695V560.819C31 546.055 43.1002 534 57.8192 534Z" fill="#090E1D" fill-opacity="0.48"/>
<path fill-rule="evenodd" clip-rule="evenodd" d="M56.8878 702.044H93.64C110.662 702.044 124.613 714.1 124.613 728.864V822.008H217.758C232.522 822.008 244.577 835.96 244.577 852.981V889.734C244.577 906.755 232.522 920.707 217.758 920.707H124.613V1013.85C124.613 1028.62 110.662 1040.67 93.64 1040.67H56.8878C39.8663 1040.67 25.9148 1028.62 25.9148 1013.85V920.707H-67.2297C-81.9937 920.707 -94.0488 906.8 -94.0488 889.734V852.981C-94.0488 835.96 -81.9937 822.008 -67.2297 822.008H25.9148V728.864C25.9148 714.1 39.8211 702.044 56.8878 702.044Z" fill="#090E1D" fill-opacity="0.48"/>
<path fill-rule="evenodd" clip-rule="evenodd" d="M192.65 574H230.26C247.688 574 261.955 588.267 261.955 605.695V643.305C261.955 660.733 247.688 674.956 230.26 674.956H192.65C175.222 674.956 161 660.688 161 643.305V605.695C161 588.267 175.267 574 192.65 574Z" fill="#090E1D" fill-opacity="0.48"/>
<path fill-rule="evenodd" clip-rule="evenodd" d="M189.634 696.583H227.244C244.672 696.583 258.894 710.85 258.894 728.278V765.889C258.894 783.316 244.627 797.539 227.244 797.539H189.634C172.206 797.539 157.938 783.271 157.938 765.889V728.278C157.938 710.85 172.206 696.583 189.634 696.583Z" fill="#090E1D" fill-opacity="0.48"/>
<path fill-rule="evenodd" clip-rule="evenodd" d="M332.177 692.291H372.993C391.91 692.291 407.352 707.778 407.352 726.695V767.511C407.352 786.429 391.865 801.916 372.993 801.916H332.177C313.259 801.916 297.772 786.429 297.772 767.511V726.695C297.818 707.732 313.259 692.291 332.177 692.291Z" fill="#090E1D" fill-opacity="0.48"/>
<path fill-rule="evenodd" clip-rule="evenodd" d="M331.863 816.908H373.311C392.499 816.908 408.212 832.62 408.212 851.809V893.257C408.212 912.445 392.499 928.158 373.311 928.158H331.863C312.674 928.158 296.962 912.445 296.962 893.257V851.809C296.962 832.62 312.674 816.908 331.863 816.908Z" fill="#090E1D" fill-opacity="0.48"/>
<path fill-rule="evenodd" clip-rule="evenodd" d="M332.035 945.042H373.122C392.13 945.042 407.707 960.619 407.707 979.627V1020.71C407.707 1039.72 392.13 1055.3 373.122 1055.3H332.035C313.027 1055.3 297.45 1039.72 297.45 1020.71V979.627C297.495 960.619 313.027 945.042 332.035 945.042Z" fill="#090E1D" fill-opacity="0.48"/>
<path fill-rule="evenodd" clip-rule="evenodd" d="M1126.65 63.8403H1147.56C1157.27 63.8403 1165.17 71.7868 1165.17 81.4489V102.353C1165.17 112.061 1157.27 119.962 1147.56 119.962H1126.65C1116.95 119.962 1109.05 112.061 1109.05 102.353V81.4489C1109.05 71.7416 1116.99 63.8403 1126.65 63.8403Z" fill="#090E1D" fill-opacity="0.48"/>
<path fill-rule="evenodd" clip-rule="evenodd" d="M1227.34 56.6162H1253.61C1265.8 56.6162 1275.78 66.5944 1275.78 78.7397V105.062C1275.78 117.253 1265.8 127.186 1253.61 127.186H1227.34C1215.15 127.186 1205.21 117.208 1205.21 105.062V78.7397C1205.21 66.5492 1215.15 56.6162 1227.34 56.6162Z" fill="#090E1D" fill-opacity="0.48"/>
<path fill-rule="evenodd" clip-rule="evenodd" d="M1227.8 177.798H1254.07C1266.26 177.798 1276.2 187.776 1276.2 199.967V226.244C1276.2 238.434 1266.22 248.367 1254.07 248.367H1227.8C1215.61 248.367 1205.63 238.389 1205.63 226.244V199.967C1205.67 187.731 1215.65 177.798 1227.8 177.798Z" fill="#090E1D" fill-opacity="0.48"/>
<path fill-rule="evenodd" clip-rule="evenodd" d="M1228.74 430.864H1255.07C1267.26 430.864 1277.19 440.842 1277.19 452.988V479.31C1277.19 491.501 1267.21 501.434 1255.07 501.434H1228.74C1216.55 501.434 1206.62 491.456 1206.62 479.31V452.988C1206.62 440.842 1216.55 430.864 1228.74 430.864Z" fill="#090E1D" fill-opacity="0.48"/>
<path fill-rule="evenodd" clip-rule="evenodd" d="M1229.19 554.214H1255.51C1267.7 554.214 1277.64 564.192 1277.64 576.383V602.66C1277.64 614.851 1267.66 624.784 1255.51 624.784H1229.19C1217 624.784 1207.07 614.805 1207.07 602.66V576.383C1207.07 564.147 1217.05 554.214 1229.19 554.214Z" fill="#090E1D" fill-opacity="0.48"/>
<path fill-rule="evenodd" clip-rule="evenodd" d="M1348.82 0H1380.7C1395.46 0 1407.51 12.0551 1407.51 26.8192V58.6952C1407.51 73.4593 1395.46 85.5144 1380.7 85.5144H1348.82C1334.06 85.5144 1322 73.4593 1322 58.6952V26.8192C1322 12.0551 1334.1 0 1348.82 0Z" fill="#090E1D" fill-opacity="0.48"/>
<path fill-rule="evenodd" clip-rule="evenodd" d="M1347.89 168.044H1384.64C1401.66 168.044 1415.61 180.1 1415.61 194.864V288.008H1508.76C1523.52 288.008 1535.58 301.96 1535.58 318.981V355.734C1535.58 372.755 1523.52 386.707 1508.76 386.707H1415.61V479.851C1415.61 494.615 1401.66 506.67 1384.64 506.67H1347.89C1330.87 506.67 1316.91 494.615 1316.91 479.851V386.707H1223.77C1209.01 386.707 1196.95 372.8 1196.95 355.734V318.981C1196.95 301.96 1209.01 288.008 1223.77 288.008H1316.91V194.864C1316.91 180.1 1330.82 168.044 1347.89 168.044Z" fill="#090E1D" fill-opacity="0.48"/>
<path fill-rule="evenodd" clip-rule="evenodd" d="M1353.31 596.765H1385.19C1399.95 596.765 1412.01 608.82 1412.01 623.584V655.415C1412.01 670.179 1399.95 682.234 1385.19 682.234H1353.31C1338.55 682.234 1326.49 670.179 1326.49 655.415V623.584C1326.49 608.82 1338.55 596.765 1353.31 596.765Z" fill="#090E1D" fill-opacity="0.48"/>
<path fill-rule="evenodd" clip-rule="evenodd" d="M1126.65 185.022H1147.56C1157.27 185.022 1165.17 192.923 1165.17 202.631V223.535C1165.17 233.242 1157.27 241.144 1147.56 241.144H1126.65C1116.95 241.144 1109.05 233.242 1109.05 223.535V202.631C1109.05 192.923 1116.99 185.022 1126.65 185.022Z" fill="#090E1D" fill-opacity="0.48"/>
<path fill-rule="evenodd" clip-rule="evenodd" d="M1036.76 315.01H1054.28C1062.41 315.01 1069.05 321.647 1069.05 329.774V347.292C1069.05 355.419 1062.41 362.056 1054.28 362.056H1036.76C1028.64 362.056 1022 355.419 1022 347.292V329.774C1022 321.647 1028.64 315.01 1036.76 315.01Z" fill="#090E1D" fill-opacity="0.48"/>
<path fill-rule="evenodd" clip-rule="evenodd" d="M1036.76 189.536H1054.28C1062.41 189.536 1069.05 196.173 1069.05 204.3V221.819C1069.05 229.946 1062.41 236.583 1054.28 236.583H1036.76C1028.64 236.583 1022 229.946 1022 221.819V204.3C1022 196.173 1028.64 189.536 1036.76 189.536Z" fill="#090E1D" fill-opacity="0.48"/>
<path fill-rule="evenodd" clip-rule="evenodd" d="M1036.76 442.649H1054.28C1062.41 442.649 1069.05 449.286 1069.05 457.413V474.931C1069.05 483.058 1062.41 489.695 1054.28 489.695H1036.76C1028.64 489.695 1022 483.058 1022 474.931V457.413C1022 449.286 1028.64 442.649 1036.76 442.649Z" fill="#090E1D" fill-opacity="0.48"/>
<path fill-rule="evenodd" clip-rule="evenodd" d="M1126.65 310.493H1147.56C1157.27 310.493 1165.17 318.44 1165.17 328.102V349.006C1165.17 358.714 1157.27 366.615 1147.56 366.615H1126.65C1116.95 366.615 1109.05 358.714 1109.05 349.006V328.102C1109.05 318.394 1116.99 310.493 1126.65 310.493Z" fill="#090E1D" fill-opacity="0.48"/>
<path fill-rule="evenodd" clip-rule="evenodd" d="M1126.65 438.088H1147.56C1157.27 438.088 1165.17 446.035 1165.17 455.697V476.601C1165.17 486.309 1157.27 494.21 1147.56 494.21H1126.65C1116.95 494.21 1109.05 486.309 1109.05 476.601V455.697C1109.05 446.035 1116.99 438.088 1126.65 438.088Z" fill="#090E1D" fill-opacity="0.48"/>
<path fill-rule="evenodd" clip-rule="evenodd" d="M1126.65 561.438H1147.56C1157.27 561.438 1165.17 569.339 1165.17 579.047V599.951C1165.17 609.613 1157.27 617.56 1147.56 617.56H1126.65C1116.95 617.56 1109.05 609.613 1109.05 599.951V579.047C1109.05 569.339 1116.99 561.438 1126.65 561.438Z" fill="#090E1D" fill-opacity="0.48"/>
</mask>
<g mask="url(#mask0_2050_1651)">
<rect x="24" y="288" width="1392" height="635" rx="32" fill="#090E1D" fill-opacity="0.48"/>
</g>
</svg>
