<svg width="64" height="64" viewBox="0 0 64 64" fill="none" xmlns="http://www.w3.org/2000/svg">
<rect x="1" y="1" width="62" height="62" rx="11" stroke="#25AFFA" stroke-width="2"/>
<rect x="28" y="25" width="8" height="8" rx="3" stroke="#25AFFA" stroke-width="2"/>
<path d="M24 42V39C24 37.3431 25.3431 36 27 36H37C38.6569 36 40 37.3431 40 39V42" stroke="#25AFFA" stroke-width="2"/>
<path d="M38 29H40.5C41.3284 29 42 29.6716 42 30.5V32" stroke="#25AFFA" stroke-width="2"/>
<rect x="38" y="24" width="3" height="3" rx="1" fill="#25AFFA"/>
<path d="M26 29H23.5C22.6716 29 22 29.6716 22 30.5V32" stroke="#25AFFA" stroke-width="2"/>
<rect width="3" height="3" rx="1" transform="matrix(-1 0 0 1 26 24)" fill="#25AFFA"/>
</svg>
