<svg width="64" height="64" viewBox="0 0 64 64" fill="none" xmlns="http://www.w3.org/2000/svg">
<rect x="1" y="1" width="62" height="62" rx="11" stroke="#25AFFA" stroke-width="2"/>
<path d="M36 42V38.2002C36 38.0775 36.0693 37.9653 36.1791 37.9105V37.9105C38.5208 36.7396 40 34.3462 40 31.7281V30C40 26.134 36.866 23 33 23L31.9231 23C28.6519 23 26 25.6519 26 28.9231V28.9231C26 28.9734 25.9863 29.0228 25.9604 29.0659L23.9855 32.3575C23.5518 33.0804 24.0725 34 24.9155 34V34C25.5144 34 26 34.4856 26 35.0845V36.5C26 37.3284 26.6716 38 27.5 38H28.5C29.3284 38 30 38.6716 30 39.5V42" stroke="#25AFFA" stroke-width="2"/>
<path d="M33 27V33" stroke="#25AFFA" stroke-width="2"/>
<path d="M36 30L30 30" stroke="#25AFFA" stroke-width="2"/>
</svg>
