<svg width="64" height="64" viewBox="0 0 64 64" fill="none" xmlns="http://www.w3.org/2000/svg">
<rect width="64" height="64" rx="12" fill="#242E49"/>
<path d="M22 23H31.3486C31.7084 23 32 23.2916 32 23.6514V23.6514C32 23.8692 31.8912 24.0726 31.7099 24.1934L23.2901 29.8066C23.1088 29.9274 23 30.1308 23 30.3486V30.3486C23 30.7084 23.2916 31 23.6514 31H33" stroke="white" stroke-width="2"/>
<path d="M34 33H40.3486C40.7084 33 41 33.2916 41 33.6514V33.6514C41 33.8692 40.8912 34.0726 40.7099 34.1934L35.2901 37.8066C35.1088 37.9274 35 38.1308 35 38.3486V38.3486C35 38.7084 35.2916 39 35.6514 39H42" stroke="white" stroke-width="2"/>
<path d="M26 37H31.3615C31.7141 37 32 37.2859 32 37.6385V37.6385C32 37.8628 31.8823 38.0706 31.69 38.186L27.31 40.814C27.1177 40.9294 27 41.1372 27 41.3615V41.3615C27 41.7141 27.2859 42 27.6385 42H33" stroke="white" stroke-width="2"/>
</svg>
