<svg width="48" height="37" viewBox="0 0 48 37" fill="none" xmlns="http://www.w3.org/2000/svg">
<path fill-rule="evenodd" clip-rule="evenodd" d="M19.7618 1.36365H23.7092C25.5422 1.36365 27.0342 2.86417 27.0342 4.68867V8.63605C27.0342 10.4691 25.5422 11.9611 23.7092 11.9611H19.7618C17.9288 11.9611 16.4368 10.4691 16.4368 8.63605V4.68867C16.4368 2.85565 17.9373 1.36365 19.7618 1.36365Z" fill="#AFE3FF"/>
<path fill-rule="evenodd" clip-rule="evenodd" d="M38.7735 0H43.7355C46.0374 0 47.9216 1.88417 47.9216 4.17758V9.14805C47.9216 11.45 46.0374 13.3256 43.7355 13.3256H38.7735C36.4716 13.3256 34.5959 11.4415 34.5959 9.14805V4.17758C34.5959 1.87564 36.4716 0 38.7735 0Z" fill="#006FFF"/>
<path fill-rule="evenodd" clip-rule="evenodd" d="M38.8604 22.8827H43.8224C46.1243 22.8827 47.9999 24.7669 47.9999 27.0688V32.0307C47.9999 34.3327 46.1158 36.2083 43.8224 36.2083H38.8604C36.5585 36.2083 34.6743 34.3241 34.6743 32.0307V27.0688C34.6828 24.7583 36.567 22.8827 38.8604 22.8827Z" fill="#25AFFA"/>
<path fill-rule="evenodd" clip-rule="evenodd" d="M19.7618 24.2473H23.7092C25.5422 24.2473 27.0342 25.7393 27.0342 27.5723V31.5197C27.0342 33.3527 25.5422 34.8447 23.7092 34.8447H19.7618C17.9288 34.8447 16.4368 33.3527 16.4368 31.5197V27.5723C16.4368 25.7393 17.9373 24.2473 19.7618 24.2473Z" fill="#AFE3FF"/>
<path fill-rule="evenodd" clip-rule="evenodd" d="M2.78788 25.0992H6.09585C7.63047 25.0992 8.88373 26.3525 8.88373 27.8871V31.1951C8.88373 32.7297 7.63047 33.983 6.09585 33.983H2.78788C1.25326 33.983 0 32.7297 0 31.1951V27.8871C0 26.3525 1.25326 25.0992 2.78788 25.0992Z" fill="#006FFF"/>
</svg>
